<svg width="1140" height="32" viewBox="0 0 1140 32" fill="none" xmlns="http://www.w3.org/2000/svg">
<path d="M59.7015 3.19998C59.2636 1.7655 57.7313 0.993084 56.3084 1.43446C54.8855 1.87584 54.1194 3.42067 54.5572 4.85515L61.5622 26.5931C62.0547 27.9172 63.4776 28.6896 64.8457 28.3034C66.2686 27.862 67.1442 26.3724 66.7064 24.9379C66.7064 24.8827 59.7015 3.19998 59.7015 3.19998Z" fill="white"/>
<path d="M48.8656 6.78616C48.4278 5.35168 46.8955 4.57927 45.4726 5.02065C44.0497 5.46202 43.2836 7.00685 43.7214 8.44133L50.7263 30.1793C51.2189 31.5034 52.6418 32.2758 54.0099 31.8896C55.4328 31.4482 56.3084 29.9586 55.8706 28.5241C55.8706 28.4689 48.8656 6.78616 48.8656 6.78616Z" fill="white"/>
<path d="M68.5672 21.2414C69.9901 20.8 70.7562 19.2552 70.3184 17.8207C69.8806 16.3862 68.3483 15.6138 66.9254 16.0552L45.3085 23.0621C43.995 23.5586 43.2289 24.9931 43.6119 26.3724C44.0498 27.8069 45.5274 28.6897 46.9503 28.2483C47.0597 28.2483 68.5672 21.2414 68.5672 21.2414Z" fill="white"/>
<path d="M49.796 27.3655C51.2189 26.9242 53.0249 26.3173 54.9403 25.6552C54.5025 24.2207 53.9005 22.4 53.2438 20.469L48.0995 22.1793L49.796 27.3655Z" fill="white"/>
<path d="M60.6866 23.7792C62.6567 23.1172 64.4627 22.5654 65.8308 22.0689C65.393 20.6344 64.791 18.8137 64.1343 16.8827L58.9901 18.593L60.6866 23.7792Z" fill="white"/>
<path d="M65.0099 10.262C66.4328 9.82065 67.199 8.27582 66.7612 6.84134C66.3234 5.40686 64.791 4.63444 63.3681 5.07582L41.806 12.1379C40.4925 12.6344 39.7264 14.0689 40.1094 15.4482C40.5473 16.9379 42.0249 17.8206 43.4477 17.3241C43.5025 17.3241 65.0099 10.262 65.0099 10.262Z" fill="white"/>
<path d="M46.2935 16.3862C47.7164 15.9448 49.5224 15.3379 51.4378 14.6758C50.7811 12.6896 50.2338 10.8689 49.7413 9.48962L44.597 11.2L46.2935 16.3862Z" fill="white"/>
<path d="M57.1293 12.8552C59.0995 12.1931 60.9054 11.6414 62.2736 11.1448C61.6169 9.15862 61.0696 7.33793 60.5771 5.95862L55.4328 7.66896L57.1293 12.8552Z" fill="white"/>
<path d="M90.403 8.9379C91.3333 9.37928 91.4428 9.65514 90.6766 11.0896C89.9104 12.5793 89.7463 12.6345 88.7612 12.2482C87.5572 11.7517 86.0796 11.3655 85.0945 11.3655C83.5075 11.3655 82.4677 11.9172 82.4677 12.8C82.4677 15.6689 91.607 14.1241 91.607 20.3034C91.607 23.3931 88.9801 25.4345 85.0398 25.4345C82.9602 25.4345 80.3881 24.7172 78.6368 23.8345C77.7612 23.3931 77.7065 23.1172 78.4726 21.6276C79.1293 20.3586 79.3483 20.1931 80.2786 20.5793C81.8109 21.2413 83.6716 21.7379 84.9851 21.7379C86.4627 21.7379 87.393 21.131 87.393 20.2482C87.393 17.4345 78.0895 18.7586 78.0895 12.8C78.0895 9.65514 80.7164 7.50342 84.602 7.50342C86.4627 7.66894 88.8159 8.22066 90.403 8.9379Z" fill="white"/>
<path d="M97.791 1.65517V24.6069C97.791 24.9379 97.408 25.3241 96.9154 25.3241H94.5075C93.9602 25.3241 93.6318 24.9379 93.6318 24.6069V1.65517C93.6318 0.496553 93.9602 0.441381 95.7114 0.441381C97.6816 0.386208 97.791 0.551726 97.791 1.65517Z" fill="white"/>
<path fill-rule="evenodd" clip-rule="evenodd" d="M114.756 24.3862V14.5103C114.756 10.2069 111.856 7.66895 107.259 7.66895C105.179 7.66895 102.881 8.33101 101.239 9.43446C100.363 9.98619 100.363 10.262 101.239 11.6414C102.169 13.0207 102.333 13.0758 103.209 12.5793C104.303 11.9172 105.672 11.4758 106.821 11.4758C109.229 11.4758 110.652 12.5793 110.652 14.4V15.5586C109.502 15.062 108.08 14.7862 106.547 14.7862C102.443 14.7862 99.7612 16.9931 99.7612 20.3034C99.7612 23.3931 102.169 25.4896 105.726 25.4896C107.587 25.4896 109.448 24.7172 110.706 23.2827L110.652 24.331C110.597 24.8827 110.98 25.2689 111.527 25.2689H113.881C114.373 25.2689 114.756 24.9379 114.756 24.3862ZM106.219 22.1793C104.741 22.1793 103.756 21.4069 103.756 20.2483C103.756 18.8138 105.234 17.7103 107.423 17.7103C108.463 17.7103 109.667 17.8758 110.597 18.262V19.8069C109.667 21.2965 108.025 22.1793 106.219 22.1793Z" fill="white"/>
<path d="M131.01 8.9931C131.886 9.48965 131.886 9.76552 130.955 11.2552C130.08 12.6345 129.915 12.7448 128.93 12.2483C128.219 11.8621 127.015 11.531 126.085 11.531C123.075 11.531 121.104 13.5172 121.104 16.5517C121.104 19.6965 123.075 21.7931 126.085 21.7931C127.124 21.7931 128.438 21.4069 129.259 20.9103C130.134 20.4138 130.298 20.4138 131.229 21.7931C132.05 23.0621 132.05 23.3379 131.284 23.8897C129.97 24.8276 127.836 25.5448 125.975 25.5448C120.448 25.5448 116.726 21.9586 116.726 16.6069C116.726 11.2552 120.448 7.72414 126.03 7.72414C127.781 7.66896 129.751 8.22069 131.01 8.9931Z" fill="white"/>
<path d="M149.124 23.1173C149.836 24 149.562 24.3311 147.811 24.938C146.06 25.6 145.786 25.5449 145.184 24.7173L140.204 18.0414L137.96 20.1931V24.5518C137.96 24.8828 137.577 25.269 137.085 25.269H134.677C134.129 25.269 133.801 24.8828 133.801 24.5518V1.6552C133.801 0.496579 134.129 0.441406 135.881 0.441406C137.905 0.441406 137.96 0.606924 137.96 1.6552V14.6759L144.746 8.11037C145.512 7.39313 145.895 7.4483 147.264 8.33106C148.741 9.26899 148.851 9.54485 148.139 10.2621L143.104 15.2276L149.124 23.1173Z" fill="white"/>
<path fill-rule="evenodd" clip-rule="evenodd" d="M247.76 27.3497H247.76L247.76 27.3497L247.76 27.3497C247.207 27.4064 246.646 27.4638 246.072 27.5345L241.464 14.2036V28.1018C240.024 28.2436 238.728 28.4327 237.336 28.6691V3.18909H241.176L246.408 17.6545V3.18909H250.488V27.0145C249.586 27.1625 248.685 27.2549 247.76 27.3497ZM261.292 12.5001L261.292 12.5001L261.292 12.5001C262.246 12.4771 263.177 12.4545 263.88 12.4545V16.4255C262.104 16.4255 259.992 16.4255 258.456 16.52V22.4291C259.204 22.384 259.957 22.3341 260.713 22.284L260.713 22.284L260.713 22.284L260.713 22.284H260.713H260.713H260.713H260.713H260.713H260.713H260.713C262.335 22.1766 263.971 22.0681 265.608 22.0036V25.8327L254.424 26.6836V3.18909H265.608V7.16H258.456V12.5491C259.267 12.5491 260.291 12.5243 261.292 12.5001L261.292 12.5001H261.292H261.292ZM276.408 7.20727H280.584C280.584 7.20727 280.584 3.18909 280.632 3.18909H268.2V7.20727H272.376V25.5491C273.672 25.5018 275.064 25.5018 276.408 25.5018V7.20727ZM287.16 12.2655H292.68V16.2364H287.16V25.2655H283.176V3.18909H294.456V7.16H287.16V12.2655ZM305.218 21.9573C303.83 21.8769 302.431 21.796 301.032 21.7673V3.18909H297V25.5018C300.696 25.5964 304.296 25.7854 307.896 26.0218V22.0982C307.01 22.061 306.116 22.0093 305.218 21.9573ZM312.666 26.3926L312.667 26.3926C313.531 26.4441 314.41 26.4964 315.288 26.5891V3.18909H311.304V26.3055C311.753 26.3382 312.208 26.3653 312.666 26.3926ZM327.816 15.2909L332.952 3.18909H328.488L325.656 9.85454L323.016 3.18909H318.696L323.4 15.1491L318.216 26.7782C318.792 26.8538 319.368 26.9143 319.944 26.9748C320.808 27.0656 321.672 27.1564 322.536 27.2982L325.512 20.5382L328.392 27.9127C328.93 27.9955 329.462 28.0841 329.992 28.1724C330.976 28.3362 331.954 28.4989 332.952 28.6218L327.816 15.2909Z" fill="white"/>
<path fill-rule="evenodd" clip-rule="evenodd" d="M441.016 5.83962C441.016 6.83019 440.152 7.67925 439.144 7.67925C438.136 7.67925 437.272 6.83019 437.272 5.83962C437.272 4.84906 438.136 4 439.144 4C440.152 4 441.016 4.84906 441.016 5.83962ZM439.144 9.18868C438.04 9.18868 437.176 10.0377 437.176 11.1226C437.176 12.2075 438.04 13.0566 439.144 13.0566C440.248 13.0566 441.112 12.2075 441.112 11.1226C441.112 9.99057 440.248 9.18868 439.144 9.18868ZM437.128 16.3113C437.128 15.2264 438.04 14.3302 439.144 14.3302C440.248 14.3302 441.208 15.2264 441.16 16.3113C441.16 17.3962 440.248 18.2925 439.144 18.2925C438.04 18.2925 437.128 17.3962 437.128 16.3113ZM439.144 19.566C438.04 19.566 437.176 20.4151 437.176 21.5C437.176 22.5849 438.04 23.434 439.144 23.434C440.248 23.434 441.112 22.5849 441.112 21.5C441.112 20.4623 440.248 19.566 439.144 19.566ZM437.272 26.7358C437.272 25.7453 438.136 24.8962 439.144 24.8962C440.2 24.8962 441.016 25.7453 441.016 26.7358C441.016 27.7264 440.152 28.5755 439.144 28.5755C438.136 28.5755 437.272 27.7264 437.272 26.7358ZM444.328 8.95283C443.128 8.95283 442.12 9.9434 442.12 11.1226C442.12 12.3019 443.128 13.2925 444.328 13.2925C445.528 13.2925 446.536 12.3019 446.536 11.1226C446.536 9.9434 445.528 8.95283 444.328 8.95283ZM442.024 16.3585C442.024 15.0849 443.08 14.0943 444.328 14.0943C445.576 14.0943 446.632 15.0849 446.632 16.3585C446.632 17.6321 445.576 18.6226 444.328 18.6226C443.032 18.6226 442.024 17.5849 442.024 16.3585ZM444.328 19.3302C443.128 19.3302 442.12 20.3208 442.12 21.5C442.12 22.6792 443.128 23.6698 444.328 23.6698C445.528 23.6698 446.536 22.6792 446.536 21.5C446.536 20.3208 445.528 19.3302 444.328 19.3302ZM447.112 16.3113C447.112 14.8962 448.312 13.8113 449.656 13.8113C451 13.8113 452.104 14.8962 452.2 16.3113C452.2 17.7264 451.096 18.8113 449.656 18.8113C448.216 18.8113 447.112 17.6321 447.112 16.3113ZM433.912 9.42453C433 9.42453 432.232 10.1792 432.232 11.0755C432.232 11.9717 433 12.7264 433.912 12.7264C434.824 12.7264 435.592 11.9717 435.592 11.0755C435.592 10.1792 434.872 9.42453 433.912 9.42453ZM432.136 16.3113C432.136 15.3208 432.904 14.566 433.912 14.566C434.92 14.566 435.688 15.3208 435.688 16.3113C435.688 17.3019 434.92 18.0566 433.912 18.0566C432.904 18.0566 432.136 17.3019 432.136 16.3113ZM433.912 19.8019C433 19.8019 432.232 20.5566 432.232 21.4528C432.232 22.3491 433 23.1038 433.912 23.1038C434.824 23.1038 435.592 22.3491 435.592 21.4528C435.592 20.5566 434.872 19.8019 433.912 19.8019ZM427.144 16.3585C427.144 15.5094 427.816 14.8491 428.68 14.8491C429.544 14.8491 430.216 15.5094 430.216 16.3585C430.216 17.2075 429.544 17.8679 428.68 17.8679C427.816 17.8679 427.144 17.2075 427.144 16.3585Z" fill="white"/>
<path d="M471.304 13.1039C471.112 13.1039 470.968 13.2926 470.968 13.4341V26.5001C470.968 26.6888 471.16 26.8303 471.304 26.8303H472.888C473.08 26.8303 473.224 26.6416 473.224 26.5001V13.4341C473.224 13.2454 473.032 13.1039 472.888 13.1039H471.304Z" fill="white"/>
<path d="M472.168 7.58496C471.304 7.58496 470.632 8.24534 470.632 9.09439C470.632 9.94345 471.304 10.6038 472.168 10.6038C473.032 10.6038 473.704 9.94345 473.704 9.09439C473.704 8.24534 472.984 7.58496 472.168 7.58496Z" fill="white"/>
<path d="M505.384 13.1039C505.192 13.1039 505.048 13.2926 505.048 13.4341V26.5001C505.048 26.6888 505.24 26.8303 505.384 26.8303H506.968C507.16 26.8303 507.304 26.6416 507.304 26.5001V13.4341C507.304 13.2454 507.112 13.1039 506.968 13.1039H505.384Z" fill="white"/>
<path d="M506.152 7.58496C505.288 7.58496 504.616 8.24534 504.616 9.09439C504.616 9.94345 505.288 10.6038 506.152 10.6038C507.016 10.6038 507.688 9.94345 507.688 9.09439C507.688 8.24534 507.016 7.58496 506.152 7.58496Z" fill="white"/>
<path fill-rule="evenodd" clip-rule="evenodd" d="M522.359 25.3997C522.349 25.4456 522.325 25.5012 522.266 25.5567C522.266 25.651 522.166 25.7454 521.966 25.6982L522.043 25.7865C522.033 25.7903 522.024 25.7926 522.016 25.7926H521.866L522.216 26.2171H522.416L522.043 25.7865C522.059 25.7801 522.079 25.7693 522.1 25.7574C522.149 25.7306 522.207 25.6982 522.266 25.6982C522.366 25.6982 522.366 25.6039 522.366 25.5095C522.366 25.4707 522.366 25.4319 522.359 25.3997ZM521.666 25.7926V25.651V25.2265H522.016C522.116 25.2265 522.216 25.2265 522.266 25.3209C522.325 25.3209 522.349 25.3536 522.359 25.3997C522.366 25.3676 522.366 25.3403 522.366 25.3209V25.2265C522.366 25.2265 522.366 25.1322 522.266 25.1322C522.266 25.1322 522.166 25.0378 522.066 25.0378H521.866H521.416V26.2171H521.616V25.7926H521.666Z" fill="#8C98A4"/>
<path fill-rule="evenodd" clip-rule="evenodd" d="M520.792 25.6509C520.792 25.0849 521.32 24.566 521.896 24.566C522.52 24.566 523 25.0377 523 25.6509C523 26.217 522.472 26.7359 521.896 26.7359C521.32 26.7359 520.792 26.217 520.792 25.6509ZM520.888 25.6509C520.888 26.217 521.32 26.6415 521.896 26.6415C522.424 26.6415 522.904 26.217 522.904 25.6509C522.904 25.0849 522.472 24.6604 521.896 24.6604C521.32 24.6604 520.888 25.0849 520.888 25.6509Z" fill="#8C98A4"/>
<path d="M484.504 15.2265C484.696 15.2265 484.84 15.0378 484.84 14.8963V13.3397C484.84 13.151 484.648 13.0095 484.504 13.0095H481.096V8.00951C481.096 7.82083 480.904 7.67932 480.76 7.67932H479.176C478.984 7.67932 478.84 7.868 478.84 8.00951V13.0095H477.16C476.968 13.0095 476.824 13.1982 476.824 13.3397V14.8963C476.824 15.085 477.016 15.2265 477.16 15.2265H478.84V22.7737C478.84 25.085 480.424 26.5944 482.728 26.5944H484.408C484.6 26.5944 484.744 26.4057 484.744 26.2642V24.7076C484.744 24.5189 484.552 24.3774 484.408 24.3774H482.968C481.864 24.3774 481.096 23.6227 481.096 22.4435V15.1793H484.504V15.2265Z" fill="white"/>
<path d="M518.2 15.2265C518.392 15.2265 518.536 15.0378 518.536 14.8963V13.3397C518.536 13.151 518.344 13.0095 518.2 13.0095H514.792V8.00951C514.792 7.82083 514.6 7.67932 514.456 7.67932H512.872C512.68 7.67932 512.536 7.868 512.536 8.00951V13.0095H510.856C510.664 13.0095 510.52 13.1982 510.52 13.3397V14.8963C510.52 15.085 510.712 15.2265 510.856 15.2265H512.536V22.7737C512.536 25.085 514.12 26.5944 516.424 26.5944H518.104C518.296 26.5944 518.44 26.4057 518.44 26.2642V24.7076C518.44 24.5189 518.248 24.3774 518.104 24.3774H516.568C515.464 24.3774 514.696 23.6227 514.696 22.4435V15.1793H518.152L518.2 15.2265Z" fill="white"/>
<path d="M461.224 15.2265V26.3585C461.224 26.5472 461.416 26.6887 461.56 26.6887H463.144C463.336 26.6887 463.48 26.5 463.48 26.3585V15.2265H467.224C467.416 15.2265 467.56 15.0378 467.56 14.8963V13.3397C467.56 13.151 467.368 13.0095 467.224 13.0095H463.48V10.085C463.48 8.90571 464.344 8.10382 465.352 8.10382H467.224C467.416 8.10382 467.56 7.91514 467.56 7.77363V6.21703C467.56 6.02835 467.368 5.88684 467.224 5.88684H465.448C463.096 5.88684 461.224 7.8208 461.224 10.0378V13.0095H459.544C459.352 13.0095 459.208 13.1982 459.208 13.3397V14.8963C459.208 15.085 459.4 15.2265 459.544 15.2265H461.224Z" fill="white"/>
<path fill-rule="evenodd" clip-rule="evenodd" d="M495.112 12.5849C496.984 12.5849 498.76 13.3397 500.008 14.6604C501.256 15.9812 501.928 17.8208 501.928 19.8491C501.928 24.8963 498.424 27.1604 495.064 27.1604C491.656 27.1604 488.2 24.9434 488.2 19.8491V6.12267C488.2 5.98116 488.344 5.79248 488.536 5.79248H490.12C490.264 5.79248 490.456 5.93399 490.456 6.12267V14.4246C491.56 13.3397 493.336 12.5849 495.112 12.5849ZM490.408 19.8963C490.408 22.3963 491.656 25.0378 495.064 25.0378C498.472 25.0378 499.672 22.3963 499.72 19.8963C499.72 16.8774 497.848 14.8019 495.064 14.8019C492.28 14.8019 490.408 16.8302 490.408 19.8963Z" fill="white"/>
<path d="M640.627 11.1256H629.435V14.4256H637.394C636.996 19.0756 633.116 21.1256 629.485 21.1256C624.809 21.1256 620.731 17.4256 620.731 12.2756C620.731 7.22559 624.61 3.32559 629.485 3.32559C633.265 3.32559 635.454 5.72559 635.454 5.72559L637.742 3.32559C637.742 3.32559 634.758 0.0255868 629.336 0.0255868C622.422 -0.0244132 617.099 5.82559 617.099 12.1756C617.099 18.3756 622.123 24.4256 629.535 24.4256C636.051 24.4256 640.826 19.9756 640.826 13.3256C640.826 11.9256 640.627 11.1256 640.627 11.1256Z" fill="white"/>
<path fill-rule="evenodd" clip-rule="evenodd" d="M641.87 16.4755C641.87 12.2755 645.153 8.67554 649.73 8.67554C653.51 8.67554 657.589 11.3755 657.638 16.5755C657.638 21.1755 654.156 24.4255 649.829 24.4255C645.054 24.4255 641.87 20.7755 641.87 16.4755ZM654.156 16.5755C654.156 13.6755 652.018 11.8255 649.779 11.8255C647.242 11.8255 645.303 13.8255 645.352 16.5255C645.352 19.3255 647.292 21.3255 649.779 21.3255C652.067 21.3255 654.156 19.4755 654.156 16.5755Z" fill="white"/>
<path fill-rule="evenodd" clip-rule="evenodd" d="M658.981 16.4755C658.981 12.2755 662.264 8.67554 666.84 8.67554C670.621 8.67554 674.699 11.3755 674.749 16.5755C674.749 21.1755 671.267 24.4255 666.94 24.4255C662.165 24.4255 658.981 20.7755 658.981 16.4755ZM671.267 16.5755C671.267 13.6755 669.128 11.8255 666.89 11.8255C664.353 11.8255 662.413 13.8255 662.463 16.5255C662.463 19.3255 664.403 21.3255 666.89 21.3255C669.178 21.3255 671.267 19.4755 671.267 16.5755Z" fill="white"/>
<path fill-rule="evenodd" clip-rule="evenodd" d="M676.092 16.5756C676.092 12.4256 679.375 8.72559 683.603 8.72559C685.444 8.72559 686.836 9.42559 687.732 10.5256V9.17559H691.015V23.3256C691.015 28.8756 687.831 31.5256 683.653 31.5256C679.823 31.5256 677.684 29.1756 676.639 26.9256L679.674 25.6756C680.121 26.6756 681.315 28.4756 683.703 28.4756C686.19 28.4756 687.831 26.8256 687.831 24.1256V22.5756C686.886 23.6256 685.742 24.4756 683.504 24.4756C679.922 24.4756 676.092 21.2756 676.092 16.5756ZM688.08 16.6256C688.08 13.6256 685.941 11.8256 683.902 11.8256C681.713 11.8256 679.574 13.5756 679.524 16.6756C679.524 19.5256 681.613 21.3756 683.852 21.3756C685.991 21.3756 688.08 19.7256 688.08 16.6256Z" fill="white"/>
<path fill-rule="evenodd" clip-rule="evenodd" d="M698.426 16.5255C698.426 11.8255 701.759 8.67554 705.738 8.67554C708.822 8.67554 711.16 10.7755 712.204 13.1755L712.751 14.4755L702.256 18.8755C702.903 20.0755 703.897 21.2755 706.086 21.2755C708.026 21.2755 709.22 20.2255 709.916 19.1255L712.652 20.9755C711.458 22.5755 709.369 24.4255 706.086 24.4255C702.156 24.4255 698.426 21.4755 698.426 16.5255ZM708.772 13.4255C708.275 12.4755 707.28 11.7255 705.837 11.7255C703.599 11.7255 701.41 14.0755 701.808 16.3755L708.772 13.4255Z" fill="white"/>
<path d="M693.452 23.9756H696.884V0.775635H693.452V23.9756Z" fill="white"/>
<path fill-rule="evenodd" clip-rule="evenodd" d="M834.415 22.238L834.415 22.2381C834.845 23.3333 834.94 24.3809 834.797 25.4285C834.463 27.619 833.03 29.5238 830.928 30.3809C830.164 30.7143 829.352 30.8571 828.493 30.8571C828.254 30.8571 827.967 30.8571 827.728 30.8095C826.725 30.7143 825.722 30.3809 824.719 29.8095C823.525 29.1428 822.331 28.1428 820.994 26.7143C819.657 28.1428 818.51 29.1428 817.269 29.8095C816.266 30.3809 815.263 30.6666 814.26 30.8095C814.14 30.8095 814.009 30.8214 813.878 30.8333C813.746 30.8452 813.615 30.8571 813.496 30.8571C812.636 30.8571 811.824 30.7143 811.06 30.3809C809.006 29.5238 807.478 27.6666 807.143 25.4285C807 24.3333 807.143 23.2857 807.525 22.2381C807.669 21.8095 807.812 21.4762 807.955 21.1429L807.955 21.1428C808.194 20.619 808.433 20.0952 808.624 19.619L808.672 19.5714C810.773 15.0952 812.97 10.5714 815.263 6.09521L815.358 5.90474C815.597 5.47617 815.836 4.99998 816.075 4.52379C816.139 4.42308 816.203 4.32061 816.268 4.21705L816.268 4.21685C816.541 3.78186 816.826 3.32777 817.173 2.90474C818.176 1.76188 819.513 1.09521 820.994 1.09521C822.427 1.09521 823.812 1.76188 824.767 2.95236C825.245 3.47617 825.579 4.0476 825.866 4.57141C826.104 5.0476 826.343 5.52379 826.582 5.95236L826.678 6.14283C829.018 10.619 831.215 15.1428 833.269 19.619H833.316C833.507 20.0952 833.746 20.6189 833.985 21.1427L833.985 21.1428C834.128 21.4761 834.272 21.857 834.415 22.2379L834.415 22.238L834.415 22.238ZM857.484 8.57141C857.484 9.66664 856.624 10.5238 855.525 10.5238C854.427 10.5238 853.567 9.66664 853.567 8.57141C853.567 7.47617 854.427 6.61902 855.525 6.61902C856.672 6.66664 857.484 7.52379 857.484 8.57141ZM849.507 12.4762V12.9524C849.507 12.9524 848.6 11.7619 846.594 11.7619C843.346 11.7619 840.815 14.2381 840.815 17.6666C840.815 21.0476 843.346 23.5714 846.594 23.5714C848.6 23.5714 849.507 22.3333 849.507 22.3333V22.8571C849.507 23.0952 849.699 23.2857 849.937 23.2857H852.373V12.0476H849.937C849.651 12.0476 849.507 12.2381 849.507 12.4762ZM847.072 20.8571C848.17 20.8571 849.078 20.2857 849.507 19.619V15.619C849.078 15 848.122 14.3809 847.072 14.3809C845.161 14.3809 843.681 15.5714 843.681 17.619C843.681 19.6666 845.161 20.8571 847.072 20.8571ZM856.958 12.0476V23.2381H854.093V12.0476H856.958ZM894.021 12.9524C894.021 12.9524 894.976 11.7619 896.934 11.7619C900.182 11.7619 902.713 14.2381 902.713 17.619C902.713 21 900.182 23.5238 896.934 23.5238C894.928 23.5238 894.021 22.2857 894.021 22.2857V22.8095C894.021 23.0476 893.83 23.2381 893.591 23.2381H891.155V6.66664H894.021V12.9524ZM896.457 20.8095C895.358 20.8095 894.499 20.2381 894.021 19.5714V15.5714C894.451 14.9524 895.406 14.3333 896.457 14.3333C898.367 14.3333 899.848 15.5238 899.848 17.5714C899.848 19.619 898.367 20.8095 896.457 20.8095ZM889.675 23.2857V16.619C889.675 14.7143 889.293 13.6666 888.337 12.8571C887.478 12.1428 886.427 11.7619 885.185 11.7619C884.087 11.7619 882.988 12.0952 882.128 12.9524V12.4762C882.128 12.2381 881.937 12.0476 881.699 12.0476H879.406V23.2857H882.272V15.4762C882.845 14.8095 883.752 14.3809 884.612 14.3809C886.188 14.3809 886.809 15.0952 886.809 16.9524V23.2857H889.675ZM872.433 11.7619C870.475 11.7619 869.519 12.9524 869.519 12.9524V6.66664H866.654V23.2381H869.09C869.328 23.2381 869.519 23.0476 869.519 22.8095V22.2857C869.519 22.2857 870.427 23.5238 872.433 23.5238C875.681 23.5238 878.212 21 878.212 17.619C878.26 14.2381 875.728 11.7619 872.433 11.7619ZM869.519 19.5714C869.997 20.2381 870.857 20.8095 871.955 20.8095C873.866 20.8095 875.346 19.619 875.346 17.5714C875.346 15.5238 873.866 14.3333 871.955 14.3333C870.904 14.3333 869.949 14.9524 869.519 15.5714V19.5714ZM864.218 11.7619C865.078 11.7619 865.555 11.9047 865.555 11.9047V14.5714C865.555 14.5714 863.167 13.7619 861.687 15.4762V23.2857H858.821V12.0476H861.257C861.496 12.0476 861.687 12.2381 861.687 12.4762V12.9524C862.164 12.3333 863.31 11.7619 864.218 11.7619ZM820.946 23.7619C819.322 21.7143 818.272 19.8095 817.937 18.2381C817.794 17.5714 817.746 16.9524 817.842 16.4285C817.89 15.9524 818.081 15.5238 818.319 15.1905C818.893 14.3809 819.848 13.8571 820.946 13.8571C822.045 13.8571 823.048 14.3333 823.573 15.1905C823.812 15.5714 824.003 15.9524 824.051 16.4285C824.146 16.9524 824.099 17.5714 823.955 18.2381C823.621 19.8095 822.57 21.7143 820.946 23.7619ZM830.164 28.6666C831.645 28.0952 832.696 26.7619 832.887 25.1905C832.982 24.3809 832.887 23.6666 832.743 22.9047C832.692 22.7501 832.626 22.5954 832.554 22.4256C832.493 22.2817 832.427 22.1271 832.361 21.9524C832.242 21.7143 832.134 21.4643 832.027 21.2143C831.919 20.9643 831.812 20.7143 831.693 20.4762V20.4285C829.639 16 827.442 11.4762 825.149 7.0476L825.054 6.85712C824.815 6.38093 824.576 5.90474 824.337 5.47617C824.099 4.99998 823.812 4.52379 823.478 4.14283C822.857 3.42855 821.997 3.0476 821.09 3.0476C820.182 3.0476 819.322 3.42855 818.701 4.14283C818.367 4.57141 818.081 4.99998 817.842 5.47617C817.603 5.95236 817.364 6.42855 817.125 6.85712L817.03 7.0476C814.69 11.4762 812.493 16 810.439 20.4285L810.391 20.4762C810.152 20.9524 809.913 21.4762 809.722 21.9524L809.722 21.9524C809.579 22.2857 809.436 22.619 809.34 22.9047C809.006 23.7619 808.958 24.4762 809.054 25.2381C809.245 26.7619 810.296 28.0952 811.776 28.7143C812.445 28.9524 813.209 29.0952 814.021 29C814.785 28.9047 815.549 28.6666 816.313 28.2381C817.364 27.619 818.463 26.7143 819.704 25.3333C817.746 22.9047 816.504 20.6666 816.075 18.7143C815.836 17.8095 815.788 16.9524 815.931 16.1905C816.075 15.4285 816.313 14.7619 816.743 14.1428C817.651 12.8571 819.227 12.0476 820.946 12.0476C822.666 12.0476 824.242 12.8095 825.149 14.1428C825.579 14.7619 825.818 15.4285 825.961 16.1905C826.057 16.9524 826.009 17.8095 825.818 18.7143C825.34 20.6666 824.146 22.8571 822.188 25.2857C823.43 26.6666 824.481 27.5714 825.579 28.1905C826.391 28.619 827.107 28.8571 827.872 28.9524C828.684 29.0476 829.448 28.9524 830.164 28.6666Z" fill="white"/>
<path d="M1012.04 6.73251V18.0139C1012.04 21.7744 1010.42 23.3372 1006.6 23.3372C1002.78 23.3372 1001.16 21.7744 1001.16 18.0139V6.24414H997.478C997.143 6.24414 997 6.39065 997 6.73251V18.1604C997 24.4604 1000.92 26.6581 1006.6 26.6581C1012.28 26.6581 1016.2 24.4604 1016.2 18.1604V6.24414H1012.52C1012.24 6.24414 1012.04 6.39065 1012.04 6.73251Z" fill="white"/>
<path d="M1065.39 9.51623C1065.68 9.51623 1065.82 9.41856 1065.92 9.17437L1066.97 6.48833C1067.02 6.34182 1066.97 6.24414 1066.83 6.24414H1052.02C1050.64 6.24414 1050.11 6.68368 1050.11 7.66042V25.1441C1050.11 25.9744 1050.49 26.3162 1051.59 26.3162H1065.39C1065.68 26.3162 1065.82 26.2186 1065.92 25.9744L1066.97 23.2883C1067.02 23.1418 1066.97 23.0441 1066.83 23.0441H1054.17V19.479C1054.17 18.2581 1054.84 17.672 1056.61 17.672H1062.1C1062.39 17.672 1062.53 17.5744 1062.62 17.3302L1063.63 14.7418C1063.67 14.5953 1063.63 14.4976 1063.48 14.4976H1054.12V9.51623H1065.39Z" fill="white"/>
<path fill-rule="evenodd" clip-rule="evenodd" d="M1041.61 11.3232C1041.61 13.2279 1040.94 14.8395 1039.32 15.7186C1041.51 16.3534 1042.52 18.3558 1042.47 20.7488C1042.47 24.7534 1039.7 26.3162 1035.83 26.3162H1025.56C1024.46 26.3162 1024.08 25.9744 1024.08 25.1441V7.66042C1024.08 6.68368 1024.61 6.24414 1025.99 6.24414H1034.4C1038.07 6.24414 1041.61 6.87902 1041.61 11.3232ZM1028.19 9.4674H1034.68C1036.83 9.4674 1037.45 10.2976 1037.45 12.0558C1037.45 13.7651 1036.83 14.6441 1034.68 14.6441H1028.19V9.4674ZM1035.45 23.093H1028.19V19.4302C1028.19 18.2093 1028.86 17.6232 1030.62 17.6232H1035.45C1037.74 17.6232 1038.41 18.5511 1038.41 20.3581C1038.41 22.2139 1037.74 23.093 1035.45 23.093Z" fill="white"/>
<path fill-rule="evenodd" clip-rule="evenodd" d="M1088.27 18.2581L1092.67 25.9744C1092.76 26.072 1092.76 26.3162 1092.43 26.3162H1088.7C1088.43 26.3162 1088.33 26.1809 1088.19 25.9969C1088.19 25.9895 1088.18 25.982 1088.18 25.9744L1084.21 18.6488H1080.58C1078.81 18.6488 1078.15 19.2348 1078.15 20.4558V26.3162H1074.56C1074.23 26.3162 1074.09 26.1697 1074.09 25.8279V7.66042C1074.09 6.68368 1074.61 6.24414 1076 6.24414H1084.4C1089.27 6.24414 1092.24 7.56275 1092.24 12.4465C1092.24 16.2069 1090.47 17.672 1088.27 18.2581ZM1078.15 15.572H1084.98C1087.56 15.572 1088.08 14.5465 1088.08 12.4953C1088.08 10.493 1087.51 9.4674 1084.98 9.4674H1078.15V15.572Z" fill="white"/>
</svg>
