<svg width="15" height="14" viewBox="0 0 15 14" fill="none" xmlns="http://www.w3.org/2000/svg">
<path d="M8.31696 12.9375C8.62946 12.625 8.59821 12.1562 8.31696 11.8438L4.53571 8.25H13.5357C13.942 8.25 14.2857 7.9375 14.2857 7.5V6.5C14.2857 6.09375 13.942 5.75 13.5357 5.75H4.53571L8.31696 2.1875C8.59821 1.875 8.62946 1.40625 8.31696 1.09375L7.62946 0.40625C7.34821 0.125 6.84821 0.125 6.56696 0.40625L0.504456 6.5C0.191956 6.78125 0.191956 7.25 0.504456 7.53125L6.56696 13.625C6.84821 13.9062 7.31696 13.9062 7.62946 13.625L8.31696 12.9375Z" fill="#5A7184"/>
</svg>
