<svg display="none" xmlns="http://www.w3.org/2000/svg">
  <symbol id="heart" width="20" height="18" viewBox="0 0 20 18" xmlns="http://www.w3.org/2000/svg">
    <path d="M17.2422 2.46484C15.3086 0.8125 12.4609 1.12891 10.668 2.95703L10 3.66016L9.29688 2.95703C7.53906 1.12891 4.65625 0.8125 2.72266 2.46484C0.507812 4.36328 0.402344 7.73828 2.37109 9.77734L9.19141 16.8086C9.61328 17.2656 10.3516 17.2656 10.7734 16.8086L17.5938 9.77734C19.5625 7.73828 19.457 4.36328 17.2422 2.46484Z"/> 

  </symbol>
 
  <symbol id="flag" width="14" height="19" viewBox="0 0 14 19" xmlns="http://www.w3.org/2000/svg">
    <path d="M12.0625 0.25H1.9375C0.988281 0.25 0.25 1.02344 0.25 1.9375V18.25L7 14.3125L13.75 18.25V1.9375C13.75 1.02344 12.9766 0.25 12.0625 0.25ZM12.0625 15.332L7 12.3789L1.9375 15.332V2.14844C1.9375 2.04297 2.00781 1.9375 2.14844 1.9375H11.8516C11.957 1.9375 12.0625 2.04297 12.0625 2.14844V15.332Z"/>

  </symbol>

  <symbol id="btn-next" width="15" height="14" viewBox="0 0 14 19" xmlns="http://www.w3.org/2000/svg">
  <path d="M6.22321 1.09375C5.91071 1.40625 5.94196 1.875 6.22321 2.1875L10.0045 5.75H1.03571C0.598206 5.75 0.285706 6.09375 0.285706 6.5V7.5C0.285706 7.9375 0.598206 8.25 1.03571 8.25H10.0045L6.22321 11.8438C5.94196 12.1562 5.94196 12.625 6.22321 12.9375L6.91071 13.625C7.22321 13.9062 7.69196 13.9062 7.97321 13.625L14.067 7.53125C14.3482 7.25 14.3482 6.78125 14.067 6.46875L7.97321 0.40625C7.69196 0.125 7.22321 0.125 6.91071 0.40625L6.22321 1.09375Z"/>

  </symbol>

  <symbol id="btn-prev" width="15" height="14" viewBox="0 0 15 14" xmlns="http://www.w3.org/2000/svg">
  <path d="M8.31696 12.9375C8.62946 12.625 8.59821 12.1562 8.31696 11.8438L4.53571 8.25H13.5357C13.942 8.25 14.2857 7.9375 14.2857 7.5V6.5C14.2857 6.09375 13.942 5.75 13.5357 5.75H4.53571L8.31696 2.1875C8.59821 1.875 8.62946 1.40625 8.31696 1.09375L7.62946 0.40625C7.34821 0.125 6.84821 0.125 6.56696 0.40625L0.504456 6.5C0.191956 6.78125 0.191956 7.25 0.504456 7.53125L6.56696 13.625C6.84821 13.9062 7.31696 13.9062 7.62946 13.625L8.31696 12.9375Z"/>

  </symbol>
</svg>
