<svg display="none" xmlns="http://www.w3.org/2000/svg">
  <symbol id="heart" width="20" height="18" viewBox="0 0 20 18" xmlns="http://www.w3.org/2000/svg">
    <path d="M17.2422 2.46484C15.3086 0.8125 12.4609 1.12891 10.668 2.95703L10 3.66016L9.29688 2.95703C7.53906 1.12891 4.65625 0.8125 2.72266 2.46484C0.507812 4.36328 0.402344 7.73828 2.37109 9.77734L9.19141 16.8086C9.61328 17.2656 10.3516 17.2656 10.7734 16.8086L17.5938 9.77734C19.5625 7.73828 19.457 4.36328 17.2422 2.46484Z"/> 

  </symbol>
 
  <symbol id="flag" width="14" height="19" viewBox="0 0 14 19" xmlns="http://www.w3.org/2000/svg">
    <path d="M12.0625 0.25H1.9375C0.988281 0.25 0.25 1.02344 0.25 1.9375V18.25L7 14.3125L13.75 18.25V1.9375C13.75 1.02344 12.9766 0.25 12.0625 0.25ZM12.0625 15.332L7 12.3789L1.9375 15.332V2.14844C1.9375 2.04297 2.00781 1.9375 2.14844 1.9375H11.8516C11.957 1.9375 12.0625 2.04297 12.0625 2.14844V15.332Z"/>

  </symbol>
</svg>
